<?xml version="1.0" encoding="utf-8" standalone="no"?>
<!DOCTYPE svg PUBLIC "-//W3C//DTD SVG 1.1//EN"
  "http://www.w3.org/Graphics/SVG/1.1/DTD/svg11.dtd">
<svg xmlns:xlink="http://www.w3.org/1999/xlink" width="576pt" height="576pt" viewBox="0 0 576 576" xmlns="http://www.w3.org/2000/svg" version="1.1">
 <metadata>
  <rdf:RDF xmlns:dc="http://purl.org/dc/elements/1.1/" xmlns:cc="http://creativecommons.org/ns#" xmlns:rdf="http://www.w3.org/1999/02/22-rdf-syntax-ns#">
   <cc:Work>
    <dc:type rdf:resource="http://purl.org/dc/dcmitype/StillImage"/>
    <dc:date>2022-05-07T22:48:49.899565</dc:date>
    <dc:format>image/svg+xml</dc:format>
    <dc:creator>
     <cc:Agent>
      <dc:title>Matplotlib v3.5.1, https://matplotlib.org/</dc:title>
     </cc:Agent>
    </dc:creator>
   </cc:Work>
  </rdf:RDF>
 </metadata>
 <defs>
  <style type="text/css">*{stroke-linejoin: round; stroke-linecap: butt}</style>
 </defs>
 <g id="figure_1">
  <g id="patch_1">
   <path d="M 0 576 
L 576 576 
L 576 0 
L 0 0 
z
" style="fill: #ffffff"/>
  </g>
  <g id="axes_1">
   <g id="patch_2">
    <path d="M 72 261.954783 
L 266.086957 261.954783 
L 266.086957 69.12 
L 72 69.12 
z
" style="fill: #ffffff"/>
   </g>
   <g id="matplotlib.axis_1">
    <g id="xtick_1">
     <g id="line2d_1">
      <defs>
       <path id="mf43378569f" d="M 0 0 
L 0 3.5 
" style="stroke: #000000; stroke-width: 0.8"/>
      </defs>
      <g>
       <use xlink:href="#mf43378569f" x="107.737121" y="261.954783" style="stroke: #000000; stroke-width: 0.8"/>
      </g>
     </g>
    </g>
    <g id="xtick_2">
     <g id="line2d_2">
      <g>
       <use xlink:href="#mf43378569f" x="167.54222" y="261.954783" style="stroke: #000000; stroke-width: 0.8"/>
      </g>
     </g>
    </g>
    <g id="xtick_3">
     <g id="line2d_3">
      <g>
       <use xlink:href="#mf43378569f" x="227.34732" y="261.954783" style="stroke: #000000; stroke-width: 0.8"/>
      </g>
     </g>
    </g>
    <g id="text_1">
     <!-- $p - p_c$ -->
     <g transform="translate(154.493478 273.532908)scale(0.1 -0.1)">
      <defs>
       <path id="DejaVuSans-Oblique-70" d="M 3175 2156 
Q 3175 2616 2975 2859 
Q 2775 3103 2400 3103 
Q 2144 3103 1911 2972 
Q 1678 2841 1497 2591 
Q 1319 2344 1212 1994 
Q 1106 1644 1106 1300 
Q 1106 863 1306 627 
Q 1506 391 1875 391 
Q 2147 391 2380 519 
Q 2613 647 2778 891 
Q 2956 1147 3065 1494 
Q 3175 1841 3175 2156 
z
M 1394 2969 
Q 1625 3272 1939 3428 
Q 2253 3584 2638 3584 
Q 3175 3584 3472 3232 
Q 3769 2881 3769 2247 
Q 3769 1728 3584 1258 
Q 3400 788 3053 416 
Q 2822 169 2531 39 
Q 2241 -91 1919 -91 
Q 1547 -91 1294 64 
Q 1041 219 916 525 
L 556 -1331 
L -19 -1331 
L 922 3500 
L 1497 3500 
L 1394 2969 
z
" transform="scale(0.015625)"/>
       <path id="DejaVuSans-2212" d="M 678 2272 
L 4684 2272 
L 4684 1741 
L 678 1741 
L 678 2272 
z
" transform="scale(0.015625)"/>
       <path id="DejaVuSans-Oblique-63" d="M 3431 3366 
L 3316 2797 
Q 3109 2947 2876 3022 
Q 2644 3097 2394 3097 
Q 2119 3097 1870 3000 
Q 1622 2903 1453 2725 
Q 1184 2453 1037 2087 
Q 891 1722 891 1331 
Q 891 859 1127 628 
Q 1363 397 1844 397 
Q 2081 397 2348 469 
Q 2616 541 2906 684 
L 2797 116 
Q 2547 13 2283 -39 
Q 2019 -91 1741 -91 
Q 1044 -91 669 257 
Q 294 606 294 1253 
Q 294 1797 489 2255 
Q 684 2713 1069 3078 
Q 1331 3328 1684 3456 
Q 2038 3584 2456 3584 
Q 2700 3584 2940 3529 
Q 3181 3475 3431 3366 
z
" transform="scale(0.015625)"/>
      </defs>
      <use xlink:href="#DejaVuSans-Oblique-70"/>
      <use xlink:href="#DejaVuSans-2212" transform="translate(82.958984 0)"/>
      <use xlink:href="#DejaVuSans-Oblique-70" transform="translate(186.230469 0)"/>
      <use xlink:href="#DejaVuSans-Oblique-63" transform="translate(249.707031 -16.40625)scale(0.7)"/>
     </g>
    </g>
   </g>
   <g id="matplotlib.axis_2">
    <g id="ytick_1">
     <g id="line2d_4">
      <defs>
       <path id="m7919eb7b8f" d="M 0 0 
L -3.5 0 
" style="stroke: #000000; stroke-width: 0.8"/>
      </defs>
      <g>
       <use xlink:href="#m7919eb7b8f" x="72" y="253.272023" style="stroke: #000000; stroke-width: 0.8"/>
      </g>
     </g>
     <g id="text_2">
      <!-- 0 -->
      <g transform="translate(58.6375 257.071242)scale(0.1 -0.1)">
       <defs>
        <path id="DejaVuSans-30" d="M 2034 4250 
Q 1547 4250 1301 3770 
Q 1056 3291 1056 2328 
Q 1056 1369 1301 889 
Q 1547 409 2034 409 
Q 2525 409 2770 889 
Q 3016 1369 3016 2328 
Q 3016 3291 2770 3770 
Q 2525 4250 2034 4250 
z
M 2034 4750 
Q 2819 4750 3233 4129 
Q 3647 3509 3647 2328 
Q 3647 1150 3233 529 
Q 2819 -91 2034 -91 
Q 1250 -91 836 529 
Q 422 1150 422 2328 
Q 422 3509 836 4129 
Q 1250 4750 2034 4750 
z
" transform="scale(0.015625)"/>
       </defs>
       <use xlink:href="#DejaVuSans-30"/>
      </g>
     </g>
    </g>
    <g id="ytick_2">
     <g id="line2d_5">
      <g>
       <use xlink:href="#m7919eb7b8f" x="72" y="218.108758" style="stroke: #000000; stroke-width: 0.8"/>
      </g>
     </g>
     <g id="text_3">
      <!-- 2000 -->
      <g transform="translate(39.55 221.907977)scale(0.1 -0.1)">
       <defs>
        <path id="DejaVuSans-32" d="M 1228 531 
L 3431 531 
L 3431 0 
L 469 0 
L 469 531 
Q 828 903 1448 1529 
Q 2069 2156 2228 2338 
Q 2531 2678 2651 2914 
Q 2772 3150 2772 3378 
Q 2772 3750 2511 3984 
Q 2250 4219 1831 4219 
Q 1534 4219 1204 4116 
Q 875 4013 500 3803 
L 500 4441 
Q 881 4594 1212 4672 
Q 1544 4750 1819 4750 
Q 2544 4750 2975 4387 
Q 3406 4025 3406 3419 
Q 3406 3131 3298 2873 
Q 3191 2616 2906 2266 
Q 2828 2175 2409 1742 
Q 1991 1309 1228 531 
z
" transform="scale(0.015625)"/>
       </defs>
       <use xlink:href="#DejaVuSans-32"/>
       <use xlink:href="#DejaVuSans-30" x="63.623047"/>
       <use xlink:href="#DejaVuSans-30" x="127.246094"/>
       <use xlink:href="#DejaVuSans-30" x="190.869141"/>
      </g>
     </g>
    </g>
    <g id="ytick_3">
     <g id="line2d_6">
      <g>
       <use xlink:href="#m7919eb7b8f" x="72" y="182.945493" style="stroke: #000000; stroke-width: 0.8"/>
      </g>
     </g>
     <g id="text_4">
      <!-- 4000 -->
      <g transform="translate(39.55 186.744712)scale(0.1 -0.1)">
       <defs>
        <path id="DejaVuSans-34" d="M 2419 4116 
L 825 1625 
L 2419 1625 
L 2419 4116 
z
M 2253 4666 
L 3047 4666 
L 3047 1625 
L 3713 1625 
L 3713 1100 
L 3047 1100 
L 3047 0 
L 2419 0 
L 2419 1100 
L 313 1100 
L 313 1709 
L 2253 4666 
z
" transform="scale(0.015625)"/>
       </defs>
       <use xlink:href="#DejaVuSans-34"/>
       <use xlink:href="#DejaVuSans-30" x="63.623047"/>
       <use xlink:href="#DejaVuSans-30" x="127.246094"/>
       <use xlink:href="#DejaVuSans-30" x="190.869141"/>
      </g>
     </g>
    </g>
    <g id="ytick_4">
     <g id="line2d_7">
      <g>
       <use xlink:href="#m7919eb7b8f" x="72" y="147.782228" style="stroke: #000000; stroke-width: 0.8"/>
      </g>
     </g>
     <g id="text_5">
      <!-- 6000 -->
      <g transform="translate(39.55 151.581447)scale(0.1 -0.1)">
       <defs>
        <path id="DejaVuSans-36" d="M 2113 2584 
Q 1688 2584 1439 2293 
Q 1191 2003 1191 1497 
Q 1191 994 1439 701 
Q 1688 409 2113 409 
Q 2538 409 2786 701 
Q 3034 994 3034 1497 
Q 3034 2003 2786 2293 
Q 2538 2584 2113 2584 
z
M 3366 4563 
L 3366 3988 
Q 3128 4100 2886 4159 
Q 2644 4219 2406 4219 
Q 1781 4219 1451 3797 
Q 1122 3375 1075 2522 
Q 1259 2794 1537 2939 
Q 1816 3084 2150 3084 
Q 2853 3084 3261 2657 
Q 3669 2231 3669 1497 
Q 3669 778 3244 343 
Q 2819 -91 2113 -91 
Q 1303 -91 875 529 
Q 447 1150 447 2328 
Q 447 3434 972 4092 
Q 1497 4750 2381 4750 
Q 2619 4750 2861 4703 
Q 3103 4656 3366 4563 
z
" transform="scale(0.015625)"/>
       </defs>
       <use xlink:href="#DejaVuSans-36"/>
       <use xlink:href="#DejaVuSans-30" x="63.623047"/>
       <use xlink:href="#DejaVuSans-30" x="127.246094"/>
       <use xlink:href="#DejaVuSans-30" x="190.869141"/>
      </g>
     </g>
    </g>
    <g id="ytick_5">
     <g id="line2d_8">
      <g>
       <use xlink:href="#m7919eb7b8f" x="72" y="112.618963" style="stroke: #000000; stroke-width: 0.8"/>
      </g>
     </g>
     <g id="text_6">
      <!-- 8000 -->
      <g transform="translate(39.55 116.418182)scale(0.1 -0.1)">
       <defs>
        <path id="DejaVuSans-38" d="M 2034 2216 
Q 1584 2216 1326 1975 
Q 1069 1734 1069 1313 
Q 1069 891 1326 650 
Q 1584 409 2034 409 
Q 2484 409 2743 651 
Q 3003 894 3003 1313 
Q 3003 1734 2745 1975 
Q 2488 2216 2034 2216 
z
M 1403 2484 
Q 997 2584 770 2862 
Q 544 3141 544 3541 
Q 544 4100 942 4425 
Q 1341 4750 2034 4750 
Q 2731 4750 3128 4425 
Q 3525 4100 3525 3541 
Q 3525 3141 3298 2862 
Q 3072 2584 2669 2484 
Q 3125 2378 3379 2068 
Q 3634 1759 3634 1313 
Q 3634 634 3220 271 
Q 2806 -91 2034 -91 
Q 1263 -91 848 271 
Q 434 634 434 1313 
Q 434 1759 690 2068 
Q 947 2378 1403 2484 
z
M 1172 3481 
Q 1172 3119 1398 2916 
Q 1625 2713 2034 2713 
Q 2441 2713 2670 2916 
Q 2900 3119 2900 3481 
Q 2900 3844 2670 4047 
Q 2441 4250 2034 4250 
Q 1625 4250 1398 4047 
Q 1172 3844 1172 3481 
z
" transform="scale(0.015625)"/>
       </defs>
       <use xlink:href="#DejaVuSans-38"/>
       <use xlink:href="#DejaVuSans-30" x="63.623047"/>
       <use xlink:href="#DejaVuSans-30" x="127.246094"/>
       <use xlink:href="#DejaVuSans-30" x="190.869141"/>
      </g>
     </g>
    </g>
    <g id="ytick_6">
     <g id="line2d_9">
      <g>
       <use xlink:href="#m7919eb7b8f" x="72" y="77.455698" style="stroke: #000000; stroke-width: 0.8"/>
      </g>
     </g>
     <g id="text_7">
      <!-- 10000 -->
      <g transform="translate(33.1875 81.254917)scale(0.1 -0.1)">
       <defs>
        <path id="DejaVuSans-31" d="M 794 531 
L 1825 531 
L 1825 4091 
L 703 3866 
L 703 4441 
L 1819 4666 
L 2450 4666 
L 2450 531 
L 3481 531 
L 3481 0 
L 794 0 
L 794 531 
z
" transform="scale(0.015625)"/>
       </defs>
       <use xlink:href="#DejaVuSans-31"/>
       <use xlink:href="#DejaVuSans-30" x="63.623047"/>
       <use xlink:href="#DejaVuSans-30" x="127.246094"/>
       <use xlink:href="#DejaVuSans-30" x="190.869141"/>
       <use xlink:href="#DejaVuSans-30" x="254.492188"/>
      </g>
     </g>
    </g>
    <g id="text_8">
     <!-- Largest connected component size -->
     <g transform="translate(27.107812 253.102235)rotate(-90)scale(0.1 -0.1)">
      <defs>
       <path id="DejaVuSans-4c" d="M 628 4666 
L 1259 4666 
L 1259 531 
L 3531 531 
L 3531 0 
L 628 0 
L 628 4666 
z
" transform="scale(0.015625)"/>
       <path id="DejaVuSans-61" d="M 2194 1759 
Q 1497 1759 1228 1600 
Q 959 1441 959 1056 
Q 959 750 1161 570 
Q 1363 391 1709 391 
Q 2188 391 2477 730 
Q 2766 1069 2766 1631 
L 2766 1759 
L 2194 1759 
z
M 3341 1997 
L 3341 0 
L 2766 0 
L 2766 531 
Q 2569 213 2275 61 
Q 1981 -91 1556 -91 
Q 1019 -91 701 211 
Q 384 513 384 1019 
Q 384 1609 779 1909 
Q 1175 2209 1959 2209 
L 2766 2209 
L 2766 2266 
Q 2766 2663 2505 2880 
Q 2244 3097 1772 3097 
Q 1472 3097 1187 3025 
Q 903 2953 641 2809 
L 641 3341 
Q 956 3463 1253 3523 
Q 1550 3584 1831 3584 
Q 2591 3584 2966 3190 
Q 3341 2797 3341 1997 
z
" transform="scale(0.015625)"/>
       <path id="DejaVuSans-72" d="M 2631 2963 
Q 2534 3019 2420 3045 
Q 2306 3072 2169 3072 
Q 1681 3072 1420 2755 
Q 1159 2438 1159 1844 
L 1159 0 
L 581 0 
L 581 3500 
L 1159 3500 
L 1159 2956 
Q 1341 3275 1631 3429 
Q 1922 3584 2338 3584 
Q 2397 3584 2469 3576 
Q 2541 3569 2628 3553 
L 2631 2963 
z
" transform="scale(0.015625)"/>
       <path id="DejaVuSans-67" d="M 2906 1791 
Q 2906 2416 2648 2759 
Q 2391 3103 1925 3103 
Q 1463 3103 1205 2759 
Q 947 2416 947 1791 
Q 947 1169 1205 825 
Q 1463 481 1925 481 
Q 2391 481 2648 825 
Q 2906 1169 2906 1791 
z
M 3481 434 
Q 3481 -459 3084 -895 
Q 2688 -1331 1869 -1331 
Q 1566 -1331 1297 -1286 
Q 1028 -1241 775 -1147 
L 775 -588 
Q 1028 -725 1275 -790 
Q 1522 -856 1778 -856 
Q 2344 -856 2625 -561 
Q 2906 -266 2906 331 
L 2906 616 
Q 2728 306 2450 153 
Q 2172 0 1784 0 
Q 1141 0 747 490 
Q 353 981 353 1791 
Q 353 2603 747 3093 
Q 1141 3584 1784 3584 
Q 2172 3584 2450 3431 
Q 2728 3278 2906 2969 
L 2906 3500 
L 3481 3500 
L 3481 434 
z
" transform="scale(0.015625)"/>
       <path id="DejaVuSans-65" d="M 3597 1894 
L 3597 1613 
L 953 1613 
Q 991 1019 1311 708 
Q 1631 397 2203 397 
Q 2534 397 2845 478 
Q 3156 559 3463 722 
L 3463 178 
Q 3153 47 2828 -22 
Q 2503 -91 2169 -91 
Q 1331 -91 842 396 
Q 353 884 353 1716 
Q 353 2575 817 3079 
Q 1281 3584 2069 3584 
Q 2775 3584 3186 3129 
Q 3597 2675 3597 1894 
z
M 3022 2063 
Q 3016 2534 2758 2815 
Q 2500 3097 2075 3097 
Q 1594 3097 1305 2825 
Q 1016 2553 972 2059 
L 3022 2063 
z
" transform="scale(0.015625)"/>
       <path id="DejaVuSans-73" d="M 2834 3397 
L 2834 2853 
Q 2591 2978 2328 3040 
Q 2066 3103 1784 3103 
Q 1356 3103 1142 2972 
Q 928 2841 928 2578 
Q 928 2378 1081 2264 
Q 1234 2150 1697 2047 
L 1894 2003 
Q 2506 1872 2764 1633 
Q 3022 1394 3022 966 
Q 3022 478 2636 193 
Q 2250 -91 1575 -91 
Q 1294 -91 989 -36 
Q 684 19 347 128 
L 347 722 
Q 666 556 975 473 
Q 1284 391 1588 391 
Q 1994 391 2212 530 
Q 2431 669 2431 922 
Q 2431 1156 2273 1281 
Q 2116 1406 1581 1522 
L 1381 1569 
Q 847 1681 609 1914 
Q 372 2147 372 2553 
Q 372 3047 722 3315 
Q 1072 3584 1716 3584 
Q 2034 3584 2315 3537 
Q 2597 3491 2834 3397 
z
" transform="scale(0.015625)"/>
       <path id="DejaVuSans-74" d="M 1172 4494 
L 1172 3500 
L 2356 3500 
L 2356 3053 
L 1172 3053 
L 1172 1153 
Q 1172 725 1289 603 
Q 1406 481 1766 481 
L 2356 481 
L 2356 0 
L 1766 0 
Q 1100 0 847 248 
Q 594 497 594 1153 
L 594 3053 
L 172 3053 
L 172 3500 
L 594 3500 
L 594 4494 
L 1172 4494 
z
" transform="scale(0.015625)"/>
       <path id="DejaVuSans-20" transform="scale(0.015625)"/>
       <path id="DejaVuSans-63" d="M 3122 3366 
L 3122 2828 
Q 2878 2963 2633 3030 
Q 2388 3097 2138 3097 
Q 1578 3097 1268 2742 
Q 959 2388 959 1747 
Q 959 1106 1268 751 
Q 1578 397 2138 397 
Q 2388 397 2633 464 
Q 2878 531 3122 666 
L 3122 134 
Q 2881 22 2623 -34 
Q 2366 -91 2075 -91 
Q 1284 -91 818 406 
Q 353 903 353 1747 
Q 353 2603 823 3093 
Q 1294 3584 2113 3584 
Q 2378 3584 2631 3529 
Q 2884 3475 3122 3366 
z
" transform="scale(0.015625)"/>
       <path id="DejaVuSans-6f" d="M 1959 3097 
Q 1497 3097 1228 2736 
Q 959 2375 959 1747 
Q 959 1119 1226 758 
Q 1494 397 1959 397 
Q 2419 397 2687 759 
Q 2956 1122 2956 1747 
Q 2956 2369 2687 2733 
Q 2419 3097 1959 3097 
z
M 1959 3584 
Q 2709 3584 3137 3096 
Q 3566 2609 3566 1747 
Q 3566 888 3137 398 
Q 2709 -91 1959 -91 
Q 1206 -91 779 398 
Q 353 888 353 1747 
Q 353 2609 779 3096 
Q 1206 3584 1959 3584 
z
" transform="scale(0.015625)"/>
       <path id="DejaVuSans-6e" d="M 3513 2113 
L 3513 0 
L 2938 0 
L 2938 2094 
Q 2938 2591 2744 2837 
Q 2550 3084 2163 3084 
Q 1697 3084 1428 2787 
Q 1159 2491 1159 1978 
L 1159 0 
L 581 0 
L 581 3500 
L 1159 3500 
L 1159 2956 
Q 1366 3272 1645 3428 
Q 1925 3584 2291 3584 
Q 2894 3584 3203 3211 
Q 3513 2838 3513 2113 
z
" transform="scale(0.015625)"/>
       <path id="DejaVuSans-64" d="M 2906 2969 
L 2906 4863 
L 3481 4863 
L 3481 0 
L 2906 0 
L 2906 525 
Q 2725 213 2448 61 
Q 2172 -91 1784 -91 
Q 1150 -91 751 415 
Q 353 922 353 1747 
Q 353 2572 751 3078 
Q 1150 3584 1784 3584 
Q 2172 3584 2448 3432 
Q 2725 3281 2906 2969 
z
M 947 1747 
Q 947 1113 1208 752 
Q 1469 391 1925 391 
Q 2381 391 2643 752 
Q 2906 1113 2906 1747 
Q 2906 2381 2643 2742 
Q 2381 3103 1925 3103 
Q 1469 3103 1208 2742 
Q 947 2381 947 1747 
z
" transform="scale(0.015625)"/>
       <path id="DejaVuSans-6d" d="M 3328 2828 
Q 3544 3216 3844 3400 
Q 4144 3584 4550 3584 
Q 5097 3584 5394 3201 
Q 5691 2819 5691 2113 
L 5691 0 
L 5113 0 
L 5113 2094 
Q 5113 2597 4934 2840 
Q 4756 3084 4391 3084 
Q 3944 3084 3684 2787 
Q 3425 2491 3425 1978 
L 3425 0 
L 2847 0 
L 2847 2094 
Q 2847 2600 2669 2842 
Q 2491 3084 2119 3084 
Q 1678 3084 1418 2786 
Q 1159 2488 1159 1978 
L 1159 0 
L 581 0 
L 581 3500 
L 1159 3500 
L 1159 2956 
Q 1356 3278 1631 3431 
Q 1906 3584 2284 3584 
Q 2666 3584 2933 3390 
Q 3200 3197 3328 2828 
z
" transform="scale(0.015625)"/>
       <path id="DejaVuSans-70" d="M 1159 525 
L 1159 -1331 
L 581 -1331 
L 581 3500 
L 1159 3500 
L 1159 2969 
Q 1341 3281 1617 3432 
Q 1894 3584 2278 3584 
Q 2916 3584 3314 3078 
Q 3713 2572 3713 1747 
Q 3713 922 3314 415 
Q 2916 -91 2278 -91 
Q 1894 -91 1617 61 
Q 1341 213 1159 525 
z
M 3116 1747 
Q 3116 2381 2855 2742 
Q 2594 3103 2138 3103 
Q 1681 3103 1420 2742 
Q 1159 2381 1159 1747 
Q 1159 1113 1420 752 
Q 1681 391 2138 391 
Q 2594 391 2855 752 
Q 3116 1113 3116 1747 
z
" transform="scale(0.015625)"/>
       <path id="DejaVuSans-69" d="M 603 3500 
L 1178 3500 
L 1178 0 
L 603 0 
L 603 3500 
z
M 603 4863 
L 1178 4863 
L 1178 4134 
L 603 4134 
L 603 4863 
z
" transform="scale(0.015625)"/>
       <path id="DejaVuSans-7a" d="M 353 3500 
L 3084 3500 
L 3084 2975 
L 922 459 
L 3084 459 
L 3084 0 
L 275 0 
L 275 525 
L 2438 3041 
L 353 3041 
L 353 3500 
z
" transform="scale(0.015625)"/>
      </defs>
      <use xlink:href="#DejaVuSans-4c"/>
      <use xlink:href="#DejaVuSans-61" x="55.712891"/>
      <use xlink:href="#DejaVuSans-72" x="116.992188"/>
      <use xlink:href="#DejaVuSans-67" x="156.355469"/>
      <use xlink:href="#DejaVuSans-65" x="219.832031"/>
      <use xlink:href="#DejaVuSans-73" x="281.355469"/>
      <use xlink:href="#DejaVuSans-74" x="333.455078"/>
      <use xlink:href="#DejaVuSans-20" x="372.664062"/>
      <use xlink:href="#DejaVuSans-63" x="404.451172"/>
      <use xlink:href="#DejaVuSans-6f" x="459.431641"/>
      <use xlink:href="#DejaVuSans-6e" x="520.613281"/>
      <use xlink:href="#DejaVuSans-6e" x="583.992188"/>
      <use xlink:href="#DejaVuSans-65" x="647.371094"/>
      <use xlink:href="#DejaVuSans-63" x="708.894531"/>
      <use xlink:href="#DejaVuSans-74" x="763.875"/>
      <use xlink:href="#DejaVuSans-65" x="803.083984"/>
      <use xlink:href="#DejaVuSans-64" x="864.607422"/>
      <use xlink:href="#DejaVuSans-20" x="928.083984"/>
      <use xlink:href="#DejaVuSans-63" x="959.871094"/>
      <use xlink:href="#DejaVuSans-6f" x="1014.851562"/>
      <use xlink:href="#DejaVuSans-6d" x="1076.033203"/>
      <use xlink:href="#DejaVuSans-70" x="1173.445312"/>
      <use xlink:href="#DejaVuSans-6f" x="1236.921875"/>
      <use xlink:href="#DejaVuSans-6e" x="1298.103516"/>
      <use xlink:href="#DejaVuSans-65" x="1361.482422"/>
      <use xlink:href="#DejaVuSans-6e" x="1423.005859"/>
      <use xlink:href="#DejaVuSans-74" x="1486.384766"/>
      <use xlink:href="#DejaVuSans-20" x="1525.59375"/>
      <use xlink:href="#DejaVuSans-73" x="1557.380859"/>
      <use xlink:href="#DejaVuSans-69" x="1609.480469"/>
      <use xlink:href="#DejaVuSans-7a" x="1637.263672"/>
      <use xlink:href="#DejaVuSans-65" x="1689.753906"/>
     </g>
    </g>
   </g>
   <g id="line2d_10">
    <path d="M 80.822134 253.189565 
L 93.235188 252.928126 
L 96.781774 252.738948 
L 101.215008 252.253167 
L 103.874948 251.350878 
L 104.761595 250.906414 
L 106.534888 249.19871 
L 108.308181 243.894859 
L 109.194828 237.864184 
L 110.081475 230.847178 
L 112.741415 206.037033 
L 116.288001 181.531578 
L 118.061295 171.457654 
L 119.834588 162.838083 
L 122.494528 151.495645 
L 124.267821 144.954047 
L 127.814408 133.92333 
L 129.587701 129.367402 
L 133.134288 121.333299 
L 134.907581 117.875344 
L 135.794228 116.097137 
L 138.454168 111.75131 
L 143.774048 104.610002 
L 144.660695 103.794566 
L 146.433988 101.750877 
L 149.093928 99.13473 
L 151.753868 96.944586 
L 157.960395 92.595593 
L 161.506982 90.686931 
L 162.393628 90.175482 
L 165.053568 88.968854 
L 166.826862 88.195087 
L 167.713508 87.896726 
L 169.486802 87.140365 
L 172.146742 86.200626 
L 181.013208 83.745176 
L 187.219735 82.476837 
L 188.993028 82.208013 
L 189.879675 81.985606 
L 191.652968 81.741573 
L 196.086202 81.089822 
L 199.632788 80.660302 
L 202.292728 80.347349 
L 204.066022 80.221289 
L 204.952668 80.072724 
L 206.725962 79.924159 
L 225.345542 78.749706 
L 237.758595 78.301199 
L 252.831589 77.964335 
L 257.264822 77.885217 
L 257.264822 77.885217 
" clip-path="url(#p26bfb0e1d0)" style="fill: none; stroke: #1f77b4; stroke-width: 1.5; stroke-linecap: square"/>
   </g>
   <g id="patch_3">
    <path d="M 72 261.954783 
L 72 69.12 
" style="fill: none; stroke: #000000; stroke-width: 0.8; stroke-linejoin: miter; stroke-linecap: square"/>
   </g>
   <g id="patch_4">
    <path d="M 266.086957 261.954783 
L 266.086957 69.12 
" style="fill: none; stroke: #000000; stroke-width: 0.8; stroke-linejoin: miter; stroke-linecap: square"/>
   </g>
   <g id="patch_5">
    <path d="M 72 261.954783 
L 266.086957 261.954783 
" style="fill: none; stroke: #000000; stroke-width: 0.8; stroke-linejoin: miter; stroke-linecap: square"/>
   </g>
   <g id="patch_6">
    <path d="M 72 69.12 
L 266.086957 69.12 
" style="fill: none; stroke: #000000; stroke-width: 0.8; stroke-linejoin: miter; stroke-linecap: square"/>
   </g>
  </g>
  <g id="axes_2">
   <g id="patch_7">
    <path d="M 324.313043 261.954783 
L 518.4 261.954783 
L 518.4 69.12 
L 324.313043 69.12 
z
" style="fill: #ffffff"/>
   </g>
   <g id="matplotlib.axis_3">
    <g id="xtick_4">
     <g id="line2d_11">
      <g>
       <use xlink:href="#mf43378569f" x="360.050164" y="261.954783" style="stroke: #000000; stroke-width: 0.8"/>
      </g>
     </g>
    </g>
    <g id="xtick_5">
     <g id="line2d_12">
      <g>
       <use xlink:href="#mf43378569f" x="419.855264" y="261.954783" style="stroke: #000000; stroke-width: 0.8"/>
      </g>
     </g>
    </g>
    <g id="xtick_6">
     <g id="line2d_13">
      <g>
       <use xlink:href="#mf43378569f" x="479.660363" y="261.954783" style="stroke: #000000; stroke-width: 0.8"/>
      </g>
     </g>
    </g>
    <g id="text_9">
     <!-- $p - p_c$ -->
     <g transform="translate(406.806522 273.532908)scale(0.1 -0.1)">
      <use xlink:href="#DejaVuSans-Oblique-70"/>
      <use xlink:href="#DejaVuSans-2212" transform="translate(82.958984 0)"/>
      <use xlink:href="#DejaVuSans-Oblique-70" transform="translate(186.230469 0)"/>
      <use xlink:href="#DejaVuSans-Oblique-63" transform="translate(249.707031 -16.40625)scale(0.7)"/>
     </g>
    </g>
   </g>
   <g id="matplotlib.axis_4">
    <g id="ytick_7">
     <g id="line2d_14">
      <g>
       <use xlink:href="#m7919eb7b8f" x="324.313043" y="242.442105" style="stroke: #000000; stroke-width: 0.8"/>
      </g>
     </g>
     <g id="text_10">
      <!-- 2 -->
      <g transform="translate(310.950543 246.241324)scale(0.1 -0.1)">
       <use xlink:href="#DejaVuSans-32"/>
      </g>
     </g>
    </g>
    <g id="ytick_8">
     <g id="line2d_15">
      <g>
       <use xlink:href="#m7919eb7b8f" x="324.313043" y="220.71029" style="stroke: #000000; stroke-width: 0.8"/>
      </g>
     </g>
     <g id="text_11">
      <!-- 4 -->
      <g transform="translate(310.950543 224.509508)scale(0.1 -0.1)">
       <use xlink:href="#DejaVuSans-34"/>
      </g>
     </g>
    </g>
    <g id="ytick_9">
     <g id="line2d_16">
      <g>
       <use xlink:href="#m7919eb7b8f" x="324.313043" y="198.978474" style="stroke: #000000; stroke-width: 0.8"/>
      </g>
     </g>
     <g id="text_12">
      <!-- 6 -->
      <g transform="translate(310.950543 202.777693)scale(0.1 -0.1)">
       <use xlink:href="#DejaVuSans-36"/>
      </g>
     </g>
    </g>
    <g id="ytick_10">
     <g id="line2d_17">
      <g>
       <use xlink:href="#m7919eb7b8f" x="324.313043" y="177.246658" style="stroke: #000000; stroke-width: 0.8"/>
      </g>
     </g>
     <g id="text_13">
      <!-- 8 -->
      <g transform="translate(310.950543 181.045877)scale(0.1 -0.1)">
       <use xlink:href="#DejaVuSans-38"/>
      </g>
     </g>
    </g>
    <g id="ytick_11">
     <g id="line2d_18">
      <g>
       <use xlink:href="#m7919eb7b8f" x="324.313043" y="155.514843" style="stroke: #000000; stroke-width: 0.8"/>
      </g>
     </g>
     <g id="text_14">
      <!-- 10 -->
      <g transform="translate(304.588043 159.314061)scale(0.1 -0.1)">
       <use xlink:href="#DejaVuSans-31"/>
       <use xlink:href="#DejaVuSans-30" x="63.623047"/>
      </g>
     </g>
    </g>
    <g id="ytick_12">
     <g id="line2d_19">
      <g>
       <use xlink:href="#m7919eb7b8f" x="324.313043" y="133.783027" style="stroke: #000000; stroke-width: 0.8"/>
      </g>
     </g>
     <g id="text_15">
      <!-- 12 -->
      <g transform="translate(304.588043 137.582246)scale(0.1 -0.1)">
       <use xlink:href="#DejaVuSans-31"/>
       <use xlink:href="#DejaVuSans-32" x="63.623047"/>
      </g>
     </g>
    </g>
    <g id="ytick_13">
     <g id="line2d_20">
      <g>
       <use xlink:href="#m7919eb7b8f" x="324.313043" y="112.051212" style="stroke: #000000; stroke-width: 0.8"/>
      </g>
     </g>
     <g id="text_16">
      <!-- 14 -->
      <g transform="translate(304.588043 115.85043)scale(0.1 -0.1)">
       <use xlink:href="#DejaVuSans-31"/>
       <use xlink:href="#DejaVuSans-34" x="63.623047"/>
      </g>
     </g>
    </g>
    <g id="ytick_14">
     <g id="line2d_21">
      <g>
       <use xlink:href="#m7919eb7b8f" x="324.313043" y="90.319396" style="stroke: #000000; stroke-width: 0.8"/>
      </g>
     </g>
     <g id="text_17">
      <!-- 16 -->
      <g transform="translate(304.588043 94.118615)scale(0.1 -0.1)">
       <use xlink:href="#DejaVuSans-31"/>
       <use xlink:href="#DejaVuSans-36" x="63.623047"/>
      </g>
     </g>
    </g>
    <g id="text_18">
     <!-- Susceptibility ($\frac{\sum_{i&gt;0} s_i^2}{\sum_{i &gt; 0} s_i}$) -->
     <g transform="translate(287.688043 214.137391)rotate(-90)scale(0.1 -0.1)">
      <defs>
       <path id="DejaVuSans-53" d="M 3425 4513 
L 3425 3897 
Q 3066 4069 2747 4153 
Q 2428 4238 2131 4238 
Q 1616 4238 1336 4038 
Q 1056 3838 1056 3469 
Q 1056 3159 1242 3001 
Q 1428 2844 1947 2747 
L 2328 2669 
Q 3034 2534 3370 2195 
Q 3706 1856 3706 1288 
Q 3706 609 3251 259 
Q 2797 -91 1919 -91 
Q 1588 -91 1214 -16 
Q 841 59 441 206 
L 441 856 
Q 825 641 1194 531 
Q 1563 422 1919 422 
Q 2459 422 2753 634 
Q 3047 847 3047 1241 
Q 3047 1584 2836 1778 
Q 2625 1972 2144 2069 
L 1759 2144 
Q 1053 2284 737 2584 
Q 422 2884 422 3419 
Q 422 4038 858 4394 
Q 1294 4750 2059 4750 
Q 2388 4750 2728 4690 
Q 3069 4631 3425 4513 
z
" transform="scale(0.015625)"/>
       <path id="DejaVuSans-75" d="M 544 1381 
L 544 3500 
L 1119 3500 
L 1119 1403 
Q 1119 906 1312 657 
Q 1506 409 1894 409 
Q 2359 409 2629 706 
Q 2900 1003 2900 1516 
L 2900 3500 
L 3475 3500 
L 3475 0 
L 2900 0 
L 2900 538 
Q 2691 219 2414 64 
Q 2138 -91 1772 -91 
Q 1169 -91 856 284 
Q 544 659 544 1381 
z
M 1991 3584 
L 1991 3584 
z
" transform="scale(0.015625)"/>
       <path id="DejaVuSans-62" d="M 3116 1747 
Q 3116 2381 2855 2742 
Q 2594 3103 2138 3103 
Q 1681 3103 1420 2742 
Q 1159 2381 1159 1747 
Q 1159 1113 1420 752 
Q 1681 391 2138 391 
Q 2594 391 2855 752 
Q 3116 1113 3116 1747 
z
M 1159 2969 
Q 1341 3281 1617 3432 
Q 1894 3584 2278 3584 
Q 2916 3584 3314 3078 
Q 3713 2572 3713 1747 
Q 3713 922 3314 415 
Q 2916 -91 2278 -91 
Q 1894 -91 1617 61 
Q 1341 213 1159 525 
L 1159 0 
L 581 0 
L 581 4863 
L 1159 4863 
L 1159 2969 
z
" transform="scale(0.015625)"/>
       <path id="DejaVuSans-6c" d="M 603 4863 
L 1178 4863 
L 1178 0 
L 603 0 
L 603 4863 
z
" transform="scale(0.015625)"/>
       <path id="DejaVuSans-79" d="M 2059 -325 
Q 1816 -950 1584 -1140 
Q 1353 -1331 966 -1331 
L 506 -1331 
L 506 -850 
L 844 -850 
Q 1081 -850 1212 -737 
Q 1344 -625 1503 -206 
L 1606 56 
L 191 3500 
L 800 3500 
L 1894 763 
L 2988 3500 
L 3597 3500 
L 2059 -325 
z
" transform="scale(0.015625)"/>
       <path id="DejaVuSans-28" d="M 1984 4856 
Q 1566 4138 1362 3434 
Q 1159 2731 1159 2009 
Q 1159 1288 1364 580 
Q 1569 -128 1984 -844 
L 1484 -844 
Q 1016 -109 783 600 
Q 550 1309 550 2009 
Q 550 2706 781 3412 
Q 1013 4119 1484 4856 
L 1984 4856 
z
" transform="scale(0.015625)"/>
       <path id="DejaVuSansDisplay-2211" d="M 244 6509 
L 5803 6509 
L 5803 5656 
L 1566 5656 
L 4534 2488 
L 1469 -888 
L 5919 -888 
L 5919 -1738 
L 109 -1738 
L 109 -1078 
L 3316 2463 
L 244 5728 
L 244 6509 
z
" transform="scale(0.015625)"/>
       <path id="DejaVuSans-Oblique-69" d="M 1172 4863 
L 1747 4863 
L 1606 4134 
L 1031 4134 
L 1172 4863 
z
M 909 3500 
L 1484 3500 
L 800 0 
L 225 0 
L 909 3500 
z
" transform="scale(0.015625)"/>
       <path id="DejaVuSans-3e" d="M 678 3150 
L 678 3719 
L 4684 2266 
L 4684 1747 
L 678 294 
L 678 863 
L 3897 2003 
L 678 3150 
z
" transform="scale(0.015625)"/>
       <path id="DejaVuSans-Oblique-73" d="M 3200 3397 
L 3091 2853 
Q 2863 2978 2609 3040 
Q 2356 3103 2088 3103 
Q 1634 3103 1373 2948 
Q 1113 2794 1113 2528 
Q 1113 2219 1719 2053 
Q 1766 2041 1788 2034 
L 1972 1978 
Q 2547 1819 2739 1644 
Q 2931 1469 2931 1166 
Q 2931 609 2489 259 
Q 2047 -91 1331 -91 
Q 1053 -91 747 -37 
Q 441 16 72 128 
L 184 722 
Q 500 559 806 475 
Q 1113 391 1394 391 
Q 1816 391 2080 572 
Q 2344 753 2344 1031 
Q 2344 1331 1650 1516 
L 1591 1531 
L 1394 1581 
Q 956 1697 753 1886 
Q 550 2075 550 2369 
Q 550 2928 970 3256 
Q 1391 3584 2113 3584 
Q 2397 3584 2667 3537 
Q 2938 3491 3200 3397 
z
" transform="scale(0.015625)"/>
       <path id="DejaVuSans-29" d="M 513 4856 
L 1013 4856 
Q 1481 4119 1714 3412 
Q 1947 2706 1947 2009 
Q 1947 1309 1714 600 
Q 1481 -109 1013 -844 
L 513 -844 
Q 928 -128 1133 580 
Q 1338 1288 1338 2009 
Q 1338 2731 1133 3434 
Q 928 4138 513 4856 
z
" transform="scale(0.015625)"/>
      </defs>
      <use xlink:href="#DejaVuSans-53" transform="translate(0 0.9475)"/>
      <use xlink:href="#DejaVuSans-75" transform="translate(63.476562 0.9475)"/>
      <use xlink:href="#DejaVuSans-73" transform="translate(126.855469 0.9475)"/>
      <use xlink:href="#DejaVuSans-63" transform="translate(178.955078 0.9475)"/>
      <use xlink:href="#DejaVuSans-65" transform="translate(233.935547 0.9475)"/>
      <use xlink:href="#DejaVuSans-70" transform="translate(295.458984 0.9475)"/>
      <use xlink:href="#DejaVuSans-74" transform="translate(358.935547 0.9475)"/>
      <use xlink:href="#DejaVuSans-69" transform="translate(398.144531 0.9475)"/>
      <use xlink:href="#DejaVuSans-62" transform="translate(425.927734 0.9475)"/>
      <use xlink:href="#DejaVuSans-69" transform="translate(489.404297 0.9475)"/>
      <use xlink:href="#DejaVuSans-6c" transform="translate(517.1875 0.9475)"/>
      <use xlink:href="#DejaVuSans-69" transform="translate(544.970703 0.9475)"/>
      <use xlink:href="#DejaVuSans-74" transform="translate(572.753906 0.9475)"/>
      <use xlink:href="#DejaVuSans-79" transform="translate(611.962891 0.9475)"/>
      <use xlink:href="#DejaVuSans-20" transform="translate(671.142578 0.9475)"/>
      <use xlink:href="#DejaVuSans-28" transform="translate(702.929688 0.9475)"/>
      <use xlink:href="#DejaVuSansDisplay-2211" transform="translate(762.943359 114.807813)scale(0.7)"/>
      <use xlink:href="#DejaVuSans-Oblique-69" transform="translate(741.943359 45.441094)scale(0.49)"/>
      <use xlink:href="#DejaVuSans-3e" transform="translate(765.103516 45.441094)scale(0.49)"/>
      <use xlink:href="#DejaVuSans-30" transform="translate(815.706543 45.441094)scale(0.49)"/>
      <use xlink:href="#DejaVuSans-Oblique-73" transform="translate(846.881836 114.807813)scale(0.7)"/>
      <use xlink:href="#DejaVuSans-32" transform="translate(886.60649 141.649531)scale(0.49)"/>
      <use xlink:href="#DejaVuSans-Oblique-69" transform="translate(883.351562 95.667188)scale(0.49)"/>
      <use xlink:href="#DejaVuSansDisplay-2211" transform="translate(772.943359 -57.697812)scale(0.7)"/>
      <use xlink:href="#DejaVuSans-Oblique-69" transform="translate(751.943359 -127.064531)scale(0.49)"/>
      <use xlink:href="#DejaVuSans-3e" transform="translate(775.103516 -127.064531)scale(0.49)"/>
      <use xlink:href="#DejaVuSans-30" transform="translate(825.706543 -127.064531)scale(0.49)"/>
      <use xlink:href="#DejaVuSans-Oblique-73" transform="translate(856.881836 -57.697812)scale(0.7)"/>
      <use xlink:href="#DejaVuSans-Oblique-69" transform="translate(893.351562 -69.182187)scale(0.49)"/>
      <use xlink:href="#DejaVuSans-29" transform="translate(932.195845 0.9475)"/>
      <path d="M 741.943359 19.744375 
L 741.943359 25.994375 
L 919.695845 25.994375 
L 919.695845 19.744375 
L 741.943359 19.744375 
z
"/>
     </g>
    </g>
   </g>
   <g id="line2d_22">
    <path d="M 333.135178 252.118115 
L 335.795118 250.82063 
L 338.455058 249.191962 
L 340.228351 247.895662 
L 342.001645 246.32801 
L 343.774938 244.444117 
L 345.548231 242.195929 
L 347.321525 239.26483 
L 348.208171 237.571004 
L 349.094818 235.554228 
L 350.868111 230.655934 
L 352.641405 223.5903 
L 354.414698 214.122936 
L 356.187991 196.933707 
L 357.074638 184.818928 
L 358.847931 149.790575 
L 359.734578 125.891378 
L 360.621225 97.169282 
L 361.507871 77.885217 
L 362.394518 85.271471 
L 363.281165 118.967339 
L 364.167811 133.964808 
L 365.054458 189.677664 
L 367.714398 213.364749 
L 368.601045 217.031537 
L 369.487691 221.763265 
L 370.374338 225.358735 
L 371.260985 228.127001 
L 372.147631 229.964253 
L 373.034278 230.798903 
L 373.920925 233.30843 
L 374.807571 234.801788 
L 375.694218 235.949359 
L 376.580865 237.347745 
L 377.467511 238.245384 
L 378.354158 238.772143 
L 379.240805 239.962124 
L 381.014098 241.456375 
L 381.900745 242.101305 
L 382.787392 242.381435 
L 383.674038 243.009637 
L 384.560685 243.408129 
L 385.447332 243.990968 
L 386.333978 244.24843 
L 388.107272 245.287143 
L 389.880565 245.891762 
L 391.653858 246.303959 
L 392.540505 246.782731 
L 395.200445 247.374025 
L 396.087092 247.74905 
L 396.973738 247.684782 
L 398.747032 248.244317 
L 401.406972 248.816885 
L 402.293618 249.033548 
L 403.180265 249.062247 
L 404.066912 249.249069 
L 404.953558 249.261744 
L 405.840205 249.52888 
L 406.726852 249.501622 
L 408.500145 249.855356 
L 411.160085 250.085701 
L 412.046732 250.268319 
L 412.933378 250.232957 
L 414.706672 250.518289 
L 417.366612 250.701429 
L 418.253258 250.862572 
L 420.026552 250.90279 
L 422.686492 251.182451 
L 426.233078 251.43216 
L 435.986192 251.883778 
L 451.945832 252.437585 
L 452.832479 252.385457 
L 456.379065 252.553174 
L 458.152359 252.520662 
L 459.039005 252.633234 
L 463.472239 252.692088 
L 473.225352 252.900789 
L 475.885292 252.861812 
L 476.771939 252.920248 
L 477.658585 252.864601 
L 478.545232 252.959401 
L 479.431879 252.871741 
L 481.205172 252.881802 
L 484.751759 252.949721 
L 486.525052 252.965931 
L 487.411699 253.041694 
L 490.071639 253.025121 
L 491.844932 253.037793 
L 492.731579 252.994156 
L 495.391519 253.121032 
L 498.051459 253.0531 
L 498.938106 253.118623 
L 499.824752 253.040804 
L 502.484692 253.092731 
L 506.031279 253.098918 
L 509.577866 253.132535 
L 509.577866 253.132535 
" clip-path="url(#pb49d0d5f1e)" style="fill: none; stroke: #1f77b4; stroke-width: 1.5; stroke-linecap: square"/>
   </g>
   <g id="patch_8">
    <path d="M 324.313043 261.954783 
L 324.313043 69.12 
" style="fill: none; stroke: #000000; stroke-width: 0.8; stroke-linejoin: miter; stroke-linecap: square"/>
   </g>
   <g id="patch_9">
    <path d="M 518.4 261.954783 
L 518.4 69.12 
" style="fill: none; stroke: #000000; stroke-width: 0.8; stroke-linejoin: miter; stroke-linecap: square"/>
   </g>
   <g id="patch_10">
    <path d="M 324.313043 261.954783 
L 518.4 261.954783 
" style="fill: none; stroke: #000000; stroke-width: 0.8; stroke-linejoin: miter; stroke-linecap: square"/>
   </g>
   <g id="patch_11">
    <path d="M 324.313043 69.12 
L 518.4 69.12 
" style="fill: none; stroke: #000000; stroke-width: 0.8; stroke-linejoin: miter; stroke-linecap: square"/>
   </g>
  </g>
  <g id="axes_3">
   <g id="patch_12">
    <path d="M 72 512.64 
L 266.086957 512.64 
L 266.086957 319.805217 
L 72 319.805217 
z
" style="fill: #ffffff"/>
   </g>
   <g id="matplotlib.axis_5">
    <g id="xtick_7">
     <g id="line2d_23">
      <g>
       <use xlink:href="#mf43378569f" x="107.737121" y="512.64" style="stroke: #000000; stroke-width: 0.8"/>
      </g>
     </g>
     <g id="text_19">
      <!-- 0.0000 -->
      <g transform="translate(90.241808 527.238438)scale(0.1 -0.1)">
       <defs>
        <path id="DejaVuSans-2e" d="M 684 794 
L 1344 794 
L 1344 0 
L 684 0 
L 684 794 
z
" transform="scale(0.015625)"/>
       </defs>
       <use xlink:href="#DejaVuSans-30"/>
       <use xlink:href="#DejaVuSans-2e" x="63.623047"/>
       <use xlink:href="#DejaVuSans-30" x="95.410156"/>
       <use xlink:href="#DejaVuSans-30" x="159.033203"/>
       <use xlink:href="#DejaVuSans-30" x="222.65625"/>
       <use xlink:href="#DejaVuSans-30" x="286.279297"/>
      </g>
     </g>
    </g>
    <g id="xtick_8">
     <g id="line2d_24">
      <g>
       <use xlink:href="#mf43378569f" x="167.54222" y="512.64" style="stroke: #000000; stroke-width: 0.8"/>
      </g>
     </g>
     <g id="text_20">
      <!-- 0.0002 -->
      <g transform="translate(150.046908 527.238438)scale(0.1 -0.1)">
       <use xlink:href="#DejaVuSans-30"/>
       <use xlink:href="#DejaVuSans-2e" x="63.623047"/>
       <use xlink:href="#DejaVuSans-30" x="95.410156"/>
       <use xlink:href="#DejaVuSans-30" x="159.033203"/>
       <use xlink:href="#DejaVuSans-30" x="222.65625"/>
       <use xlink:href="#DejaVuSans-32" x="286.279297"/>
      </g>
     </g>
    </g>
    <g id="xtick_9">
     <g id="line2d_25">
      <g>
       <use xlink:href="#mf43378569f" x="227.34732" y="512.64" style="stroke: #000000; stroke-width: 0.8"/>
      </g>
     </g>
     <g id="text_21">
      <!-- 0.0004 -->
      <g transform="translate(209.852007 527.238438)scale(0.1 -0.1)">
       <use xlink:href="#DejaVuSans-30"/>
       <use xlink:href="#DejaVuSans-2e" x="63.623047"/>
       <use xlink:href="#DejaVuSans-30" x="95.410156"/>
       <use xlink:href="#DejaVuSans-30" x="159.033203"/>
       <use xlink:href="#DejaVuSans-30" x="222.65625"/>
       <use xlink:href="#DejaVuSans-34" x="286.279297"/>
      </g>
     </g>
    </g>
    <g id="text_22">
     <!-- $p - p_c$ -->
     <g transform="translate(154.493478 540.89625)scale(0.1 -0.1)">
      <use xlink:href="#DejaVuSans-Oblique-70"/>
      <use xlink:href="#DejaVuSans-2212" transform="translate(82.958984 0)"/>
      <use xlink:href="#DejaVuSans-Oblique-70" transform="translate(186.230469 0)"/>
      <use xlink:href="#DejaVuSans-Oblique-63" transform="translate(249.707031 -16.40625)scale(0.7)"/>
     </g>
    </g>
   </g>
   <g id="matplotlib.axis_6">
    <g id="ytick_15">
     <g id="line2d_26">
      <g>
       <use xlink:href="#m7919eb7b8f" x="72" y="503.894361" style="stroke: #000000; stroke-width: 0.8"/>
      </g>
     </g>
     <g id="text_23">
      <!-- 0 -->
      <g transform="translate(58.6375 507.69358)scale(0.1 -0.1)">
       <use xlink:href="#DejaVuSans-30"/>
      </g>
     </g>
    </g>
    <g id="ytick_16">
     <g id="line2d_27">
      <g>
       <use xlink:href="#m7919eb7b8f" x="72" y="468.657635" style="stroke: #000000; stroke-width: 0.8"/>
      </g>
     </g>
     <g id="text_24">
      <!-- 2000 -->
      <g transform="translate(39.55 472.456854)scale(0.1 -0.1)">
       <use xlink:href="#DejaVuSans-32"/>
       <use xlink:href="#DejaVuSans-30" x="63.623047"/>
       <use xlink:href="#DejaVuSans-30" x="127.246094"/>
       <use xlink:href="#DejaVuSans-30" x="190.869141"/>
      </g>
     </g>
    </g>
    <g id="ytick_17">
     <g id="line2d_28">
      <g>
       <use xlink:href="#m7919eb7b8f" x="72" y="433.420909" style="stroke: #000000; stroke-width: 0.8"/>
      </g>
     </g>
     <g id="text_25">
      <!-- 4000 -->
      <g transform="translate(39.55 437.220127)scale(0.1 -0.1)">
       <use xlink:href="#DejaVuSans-34"/>
       <use xlink:href="#DejaVuSans-30" x="63.623047"/>
       <use xlink:href="#DejaVuSans-30" x="127.246094"/>
       <use xlink:href="#DejaVuSans-30" x="190.869141"/>
      </g>
     </g>
    </g>
    <g id="ytick_18">
     <g id="line2d_29">
      <g>
       <use xlink:href="#m7919eb7b8f" x="72" y="398.184183" style="stroke: #000000; stroke-width: 0.8"/>
      </g>
     </g>
     <g id="text_26">
      <!-- 6000 -->
      <g transform="translate(39.55 401.983401)scale(0.1 -0.1)">
       <use xlink:href="#DejaVuSans-36"/>
       <use xlink:href="#DejaVuSans-30" x="63.623047"/>
       <use xlink:href="#DejaVuSans-30" x="127.246094"/>
       <use xlink:href="#DejaVuSans-30" x="190.869141"/>
      </g>
     </g>
    </g>
    <g id="ytick_19">
     <g id="line2d_30">
      <g>
       <use xlink:href="#m7919eb7b8f" x="72" y="362.947456" style="stroke: #000000; stroke-width: 0.8"/>
      </g>
     </g>
     <g id="text_27">
      <!-- 8000 -->
      <g transform="translate(39.55 366.746675)scale(0.1 -0.1)">
       <use xlink:href="#DejaVuSans-38"/>
       <use xlink:href="#DejaVuSans-30" x="63.623047"/>
       <use xlink:href="#DejaVuSans-30" x="127.246094"/>
       <use xlink:href="#DejaVuSans-30" x="190.869141"/>
      </g>
     </g>
    </g>
    <g id="ytick_20">
     <g id="line2d_31">
      <g>
       <use xlink:href="#m7919eb7b8f" x="72" y="327.71073" style="stroke: #000000; stroke-width: 0.8"/>
      </g>
     </g>
     <g id="text_28">
      <!-- 10000 -->
      <g transform="translate(33.1875 331.509949)scale(0.1 -0.1)">
       <use xlink:href="#DejaVuSans-31"/>
       <use xlink:href="#DejaVuSans-30" x="63.623047"/>
       <use xlink:href="#DejaVuSans-30" x="127.246094"/>
       <use xlink:href="#DejaVuSans-30" x="190.869141"/>
       <use xlink:href="#DejaVuSans-30" x="254.492188"/>
      </g>
     </g>
    </g>
    <g id="text_29">
     <!-- Expected component size -->
     <g transform="translate(27.107812 480.711671)rotate(-90)scale(0.1 -0.1)">
      <defs>
       <path id="DejaVuSans-45" d="M 628 4666 
L 3578 4666 
L 3578 4134 
L 1259 4134 
L 1259 2753 
L 3481 2753 
L 3481 2222 
L 1259 2222 
L 1259 531 
L 3634 531 
L 3634 0 
L 628 0 
L 628 4666 
z
" transform="scale(0.015625)"/>
       <path id="DejaVuSans-78" d="M 3513 3500 
L 2247 1797 
L 3578 0 
L 2900 0 
L 1881 1375 
L 863 0 
L 184 0 
L 1544 1831 
L 300 3500 
L 978 3500 
L 1906 2253 
L 2834 3500 
L 3513 3500 
z
" transform="scale(0.015625)"/>
      </defs>
      <use xlink:href="#DejaVuSans-45"/>
      <use xlink:href="#DejaVuSans-78" x="63.183594"/>
      <use xlink:href="#DejaVuSans-70" x="122.363281"/>
      <use xlink:href="#DejaVuSans-65" x="185.839844"/>
      <use xlink:href="#DejaVuSans-63" x="247.363281"/>
      <use xlink:href="#DejaVuSans-74" x="302.34375"/>
      <use xlink:href="#DejaVuSans-65" x="341.552734"/>
      <use xlink:href="#DejaVuSans-64" x="403.076172"/>
      <use xlink:href="#DejaVuSans-20" x="466.552734"/>
      <use xlink:href="#DejaVuSans-63" x="498.339844"/>
      <use xlink:href="#DejaVuSans-6f" x="553.320312"/>
      <use xlink:href="#DejaVuSans-6d" x="614.501953"/>
      <use xlink:href="#DejaVuSans-70" x="711.914062"/>
      <use xlink:href="#DejaVuSans-6f" x="775.390625"/>
      <use xlink:href="#DejaVuSans-6e" x="836.572266"/>
      <use xlink:href="#DejaVuSans-65" x="899.951172"/>
      <use xlink:href="#DejaVuSans-6e" x="961.474609"/>
      <use xlink:href="#DejaVuSans-74" x="1024.853516"/>
      <use xlink:href="#DejaVuSans-20" x="1064.0625"/>
      <use xlink:href="#DejaVuSans-73" x="1095.849609"/>
      <use xlink:href="#DejaVuSans-69" x="1147.949219"/>
      <use xlink:href="#DejaVuSans-7a" x="1175.732422"/>
      <use xlink:href="#DejaVuSans-65" x="1228.222656"/>
     </g>
    </g>
   </g>
   <g id="line2d_32">
    <path d="M 80.822134 503.874783 
L 103.874948 503.761831 
L 106.534888 503.59091 
L 108.308181 502.965263 
L 109.194828 501.992723 
L 110.081475 500.343525 
L 110.968121 497.832502 
L 111.854768 494.747731 
L 114.514708 483.326135 
L 118.061295 465.660682 
L 119.834588 457.220589 
L 124.267821 436.980132 
L 129.587701 416.36581 
L 134.020935 401.855531 
L 138.454168 389.728955 
L 140.227461 385.663679 
L 142.000755 381.680264 
L 143.774048 377.920823 
L 144.660695 376.535027 
L 146.433988 373.030593 
L 149.093928 368.473114 
L 151.753868 364.598341 
L 157.960395 356.742859 
L 159.733688 355.024503 
L 162.393628 352.277913 
L 164.166922 350.814748 
L 166.826862 348.574221 
L 167.713508 348.012289 
L 168.600155 347.20298 
L 172.146742 344.799089 
L 173.920035 343.763816 
L 174.806682 343.218622 
L 175.693328 342.829961 
L 176.579975 342.166736 
L 180.126562 340.491566 
L 182.786502 339.328805 
L 185.446442 338.284533 
L 186.333088 337.886304 
L 188.993028 337.105306 
L 189.879675 336.671361 
L 190.766322 336.492793 
L 193.426262 335.674507 
L 197.859495 334.482676 
L 199.632788 334.074025 
L 200.519435 333.795077 
L 201.406082 333.723212 
L 202.292728 333.457797 
L 204.066022 333.209236 
L 204.952668 332.916052 
L 205.839315 332.864661 
L 206.725962 332.62272 
L 223.572249 330.419154 
L 227.118835 330.194621 
L 228.005482 330.05326 
L 229.778775 329.945792 
L 244.851769 329.049139 
L 246.625062 328.994398 
L 250.171649 328.789665 
L 251.944942 328.765095 
L 257.264822 328.570435 
L 257.264822 328.570435 
" clip-path="url(#pead8857dac)" style="fill: none; stroke: #1f77b4; stroke-width: 1.5; stroke-linecap: square"/>
   </g>
   <g id="patch_13">
    <path d="M 72 512.64 
L 72 319.805217 
" style="fill: none; stroke: #000000; stroke-width: 0.8; stroke-linejoin: miter; stroke-linecap: square"/>
   </g>
   <g id="patch_14">
    <path d="M 266.086957 512.64 
L 266.086957 319.805217 
" style="fill: none; stroke: #000000; stroke-width: 0.8; stroke-linejoin: miter; stroke-linecap: square"/>
   </g>
   <g id="patch_15">
    <path d="M 72 512.64 
L 266.086957 512.64 
" style="fill: none; stroke: #000000; stroke-width: 0.8; stroke-linejoin: miter; stroke-linecap: square"/>
   </g>
   <g id="patch_16">
    <path d="M 72 319.805217 
L 266.086957 319.805217 
" style="fill: none; stroke: #000000; stroke-width: 0.8; stroke-linejoin: miter; stroke-linecap: square"/>
   </g>
  </g>
  <g id="axes_4">
   <g id="patch_17">
    <path d="M 324.313043 512.64 
L 518.4 512.64 
L 518.4 319.805217 
L 324.313043 319.805217 
z
" style="fill: #ffffff"/>
   </g>
   <g id="matplotlib.axis_7">
    <g id="xtick_10">
     <g id="line2d_33">
      <g>
       <use xlink:href="#mf43378569f" x="360.050164" y="512.64" style="stroke: #000000; stroke-width: 0.8"/>
      </g>
     </g>
     <g id="text_30">
      <!-- 0.0000 -->
      <g transform="translate(342.554852 527.238438)scale(0.1 -0.1)">
       <use xlink:href="#DejaVuSans-30"/>
       <use xlink:href="#DejaVuSans-2e" x="63.623047"/>
       <use xlink:href="#DejaVuSans-30" x="95.410156"/>
       <use xlink:href="#DejaVuSans-30" x="159.033203"/>
       <use xlink:href="#DejaVuSans-30" x="222.65625"/>
       <use xlink:href="#DejaVuSans-30" x="286.279297"/>
      </g>
     </g>
    </g>
    <g id="xtick_11">
     <g id="line2d_34">
      <g>
       <use xlink:href="#mf43378569f" x="419.855264" y="512.64" style="stroke: #000000; stroke-width: 0.8"/>
      </g>
     </g>
     <g id="text_31">
      <!-- 0.0002 -->
      <g transform="translate(402.359951 527.238438)scale(0.1 -0.1)">
       <use xlink:href="#DejaVuSans-30"/>
       <use xlink:href="#DejaVuSans-2e" x="63.623047"/>
       <use xlink:href="#DejaVuSans-30" x="95.410156"/>
       <use xlink:href="#DejaVuSans-30" x="159.033203"/>
       <use xlink:href="#DejaVuSans-30" x="222.65625"/>
       <use xlink:href="#DejaVuSans-32" x="286.279297"/>
      </g>
     </g>
    </g>
    <g id="xtick_12">
     <g id="line2d_35">
      <g>
       <use xlink:href="#mf43378569f" x="479.660363" y="512.64" style="stroke: #000000; stroke-width: 0.8"/>
      </g>
     </g>
     <g id="text_32">
      <!-- 0.0004 -->
      <g transform="translate(462.165051 527.238438)scale(0.1 -0.1)">
       <use xlink:href="#DejaVuSans-30"/>
       <use xlink:href="#DejaVuSans-2e" x="63.623047"/>
       <use xlink:href="#DejaVuSans-30" x="95.410156"/>
       <use xlink:href="#DejaVuSans-30" x="159.033203"/>
       <use xlink:href="#DejaVuSans-30" x="222.65625"/>
       <use xlink:href="#DejaVuSans-34" x="286.279297"/>
      </g>
     </g>
    </g>
    <g id="text_33">
     <!-- $p - p_c$ -->
     <g transform="translate(406.806522 540.89625)scale(0.1 -0.1)">
      <use xlink:href="#DejaVuSans-Oblique-70"/>
      <use xlink:href="#DejaVuSans-2212" transform="translate(82.958984 0)"/>
      <use xlink:href="#DejaVuSans-Oblique-70" transform="translate(186.230469 0)"/>
      <use xlink:href="#DejaVuSans-Oblique-63" transform="translate(249.707031 -16.40625)scale(0.7)"/>
     </g>
    </g>
   </g>
   <g id="matplotlib.axis_8">
    <g id="ytick_21">
     <g id="line2d_36">
      <g>
       <use xlink:href="#m7919eb7b8f" x="324.313043" y="504.006391" style="stroke: #000000; stroke-width: 0.8"/>
      </g>
     </g>
     <g id="text_34">
      <!-- 0.0 -->
      <g transform="translate(301.409918 507.80561)scale(0.1 -0.1)">
       <use xlink:href="#DejaVuSans-30"/>
       <use xlink:href="#DejaVuSans-2e" x="63.623047"/>
       <use xlink:href="#DejaVuSans-30" x="95.410156"/>
      </g>
     </g>
    </g>
    <g id="ytick_22">
     <g id="line2d_37">
      <g>
       <use xlink:href="#m7919eb7b8f" x="324.313043" y="480.316825" style="stroke: #000000; stroke-width: 0.8"/>
      </g>
     </g>
     <g id="text_35">
      <!-- 0.2 -->
      <g transform="translate(301.409918 484.116043)scale(0.1 -0.1)">
       <use xlink:href="#DejaVuSans-30"/>
       <use xlink:href="#DejaVuSans-2e" x="63.623047"/>
       <use xlink:href="#DejaVuSans-32" x="95.410156"/>
      </g>
     </g>
    </g>
    <g id="ytick_23">
     <g id="line2d_38">
      <g>
       <use xlink:href="#m7919eb7b8f" x="324.313043" y="456.627258" style="stroke: #000000; stroke-width: 0.8"/>
      </g>
     </g>
     <g id="text_36">
      <!-- 0.4 -->
      <g transform="translate(301.409918 460.426477)scale(0.1 -0.1)">
       <use xlink:href="#DejaVuSans-30"/>
       <use xlink:href="#DejaVuSans-2e" x="63.623047"/>
       <use xlink:href="#DejaVuSans-34" x="95.410156"/>
      </g>
     </g>
    </g>
    <g id="ytick_24">
     <g id="line2d_39">
      <g>
       <use xlink:href="#m7919eb7b8f" x="324.313043" y="432.937691" style="stroke: #000000; stroke-width: 0.8"/>
      </g>
     </g>
     <g id="text_37">
      <!-- 0.6 -->
      <g transform="translate(301.409918 436.73691)scale(0.1 -0.1)">
       <use xlink:href="#DejaVuSans-30"/>
       <use xlink:href="#DejaVuSans-2e" x="63.623047"/>
       <use xlink:href="#DejaVuSans-36" x="95.410156"/>
      </g>
     </g>
    </g>
    <g id="ytick_25">
     <g id="line2d_40">
      <g>
       <use xlink:href="#m7919eb7b8f" x="324.313043" y="409.248124" style="stroke: #000000; stroke-width: 0.8"/>
      </g>
     </g>
     <g id="text_38">
      <!-- 0.8 -->
      <g transform="translate(301.409918 413.047343)scale(0.1 -0.1)">
       <use xlink:href="#DejaVuSans-30"/>
       <use xlink:href="#DejaVuSans-2e" x="63.623047"/>
       <use xlink:href="#DejaVuSans-38" x="95.410156"/>
      </g>
     </g>
    </g>
    <g id="ytick_26">
     <g id="line2d_41">
      <g>
       <use xlink:href="#m7919eb7b8f" x="324.313043" y="385.558558" style="stroke: #000000; stroke-width: 0.8"/>
      </g>
     </g>
     <g id="text_39">
      <!-- 1.0 -->
      <g transform="translate(301.409918 389.357776)scale(0.1 -0.1)">
       <use xlink:href="#DejaVuSans-31"/>
       <use xlink:href="#DejaVuSans-2e" x="63.623047"/>
       <use xlink:href="#DejaVuSans-30" x="95.410156"/>
      </g>
     </g>
    </g>
    <g id="ytick_27">
     <g id="line2d_42">
      <g>
       <use xlink:href="#m7919eb7b8f" x="324.313043" y="361.868991" style="stroke: #000000; stroke-width: 0.8"/>
      </g>
     </g>
     <g id="text_40">
      <!-- 1.2 -->
      <g transform="translate(301.409918 365.66821)scale(0.1 -0.1)">
       <use xlink:href="#DejaVuSans-31"/>
       <use xlink:href="#DejaVuSans-2e" x="63.623047"/>
       <use xlink:href="#DejaVuSans-32" x="95.410156"/>
      </g>
     </g>
    </g>
    <g id="ytick_28">
     <g id="line2d_43">
      <g>
       <use xlink:href="#m7919eb7b8f" x="324.313043" y="338.179424" style="stroke: #000000; stroke-width: 0.8"/>
      </g>
     </g>
     <g id="text_41">
      <!-- 1.4 -->
      <g transform="translate(301.409918 341.978643)scale(0.1 -0.1)">
       <use xlink:href="#DejaVuSans-31"/>
       <use xlink:href="#DejaVuSans-2e" x="63.623047"/>
       <use xlink:href="#DejaVuSans-34" x="95.410156"/>
      </g>
     </g>
    </g>
    <g id="text_42">
     <!-- Susceptibility ($\sum_i s_i^2 - \frac{1}{n} \sum_i s_i^3$) -->
     <g transform="translate(287.409918 483.772609)rotate(-90)scale(0.1 -0.1)">
      <defs>
       <path id="DejaVuSans-Oblique-6e" d="M 3566 2113 
L 3156 0 
L 2578 0 
L 2988 2091 
Q 3016 2238 3031 2350 
Q 3047 2463 3047 2528 
Q 3047 2791 2881 2937 
Q 2716 3084 2419 3084 
Q 1956 3084 1622 2776 
Q 1288 2469 1184 1941 
L 800 0 
L 225 0 
L 903 3500 
L 1478 3500 
L 1363 2950 
Q 1603 3253 1940 3418 
Q 2278 3584 2650 3584 
Q 3113 3584 3367 3334 
Q 3622 3084 3622 2631 
Q 3622 2519 3608 2391 
Q 3594 2263 3566 2113 
z
" transform="scale(0.015625)"/>
       <path id="DejaVuSans-33" d="M 2597 2516 
Q 3050 2419 3304 2112 
Q 3559 1806 3559 1356 
Q 3559 666 3084 287 
Q 2609 -91 1734 -91 
Q 1441 -91 1130 -33 
Q 819 25 488 141 
L 488 750 
Q 750 597 1062 519 
Q 1375 441 1716 441 
Q 2309 441 2620 675 
Q 2931 909 2931 1356 
Q 2931 1769 2642 2001 
Q 2353 2234 1838 2234 
L 1294 2234 
L 1294 2753 
L 1863 2753 
Q 2328 2753 2575 2939 
Q 2822 3125 2822 3475 
Q 2822 3834 2567 4026 
Q 2313 4219 1838 4219 
Q 1578 4219 1281 4162 
Q 984 4106 628 3988 
L 628 4550 
Q 988 4650 1302 4700 
Q 1616 4750 1894 4750 
Q 2613 4750 3031 4423 
Q 3450 4097 3450 3541 
Q 3450 3153 3228 2886 
Q 3006 2619 2597 2516 
z
" transform="scale(0.015625)"/>
      </defs>
      <use xlink:href="#DejaVuSans-53" transform="translate(0 0.296875)"/>
      <use xlink:href="#DejaVuSans-75" transform="translate(63.476562 0.296875)"/>
      <use xlink:href="#DejaVuSans-73" transform="translate(126.855469 0.296875)"/>
      <use xlink:href="#DejaVuSans-63" transform="translate(178.955078 0.296875)"/>
      <use xlink:href="#DejaVuSans-65" transform="translate(233.935547 0.296875)"/>
      <use xlink:href="#DejaVuSans-70" transform="translate(295.458984 0.296875)"/>
      <use xlink:href="#DejaVuSans-74" transform="translate(358.935547 0.296875)"/>
      <use xlink:href="#DejaVuSans-69" transform="translate(398.144531 0.296875)"/>
      <use xlink:href="#DejaVuSans-62" transform="translate(425.927734 0.296875)"/>
      <use xlink:href="#DejaVuSans-69" transform="translate(489.404297 0.296875)"/>
      <use xlink:href="#DejaVuSans-6c" transform="translate(517.1875 0.296875)"/>
      <use xlink:href="#DejaVuSans-69" transform="translate(544.970703 0.296875)"/>
      <use xlink:href="#DejaVuSans-74" transform="translate(572.753906 0.296875)"/>
      <use xlink:href="#DejaVuSans-79" transform="translate(611.962891 0.296875)"/>
      <use xlink:href="#DejaVuSans-20" transform="translate(671.142578 0.296875)"/>
      <use xlink:href="#DejaVuSans-28" transform="translate(702.929688 0.296875)"/>
      <use xlink:href="#DejaVuSansDisplay-2211" transform="translate(741.943359 0.296875)"/>
      <use xlink:href="#DejaVuSans-Oblique-69" transform="translate(778.943359 -98.798438)scale(0.7)"/>
      <use xlink:href="#DejaVuSans-Oblique-73" transform="translate(832.708984 0.296875)"/>
      <use xlink:href="#DejaVuSans-32" transform="translate(889.45849 38.642188)scale(0.7)"/>
      <use xlink:href="#DejaVuSans-Oblique-69" transform="translate(884.808594 -27.046875)scale(0.7)"/>
      <use xlink:href="#DejaVuSans-2212" transform="translate(956.211419 0.296875)"/>
      <use xlink:href="#DejaVuSans-31" transform="translate(1059.482904 44.09375)scale(0.7)"/>
      <use xlink:href="#DejaVuSans-Oblique-6e" transform="translate(1059.482904 -26.35625)scale(0.7)"/>
      <use xlink:href="#DejaVuSansDisplay-2211" transform="translate(1116.519036 0.296875)"/>
      <use xlink:href="#DejaVuSans-Oblique-69" transform="translate(1153.519036 -98.798438)scale(0.7)"/>
      <use xlink:href="#DejaVuSans-Oblique-73" transform="translate(1207.284661 0.296875)"/>
      <use xlink:href="#DejaVuSans-33" transform="translate(1264.034167 39.6375)scale(0.7)"/>
      <use xlink:href="#DejaVuSans-Oblique-69" transform="translate(1259.384271 -27.046875)scale(0.7)"/>
      <use xlink:href="#DejaVuSans-29" transform="translate(1311.304674 0.296875)"/>
      <path d="M 1059.482904 19.09375 
L 1059.482904 25.34375 
L 1104.019036 25.34375 
L 1104.019036 19.09375 
L 1059.482904 19.09375 
z
"/>
     </g>
    </g>
    <g id="text_43">
     <!-- 1e7 -->
     <g transform="translate(324.313043 316.805217)scale(0.1 -0.1)">
      <defs>
       <path id="DejaVuSans-37" d="M 525 4666 
L 3525 4666 
L 3525 4397 
L 1831 0 
L 1172 0 
L 2766 4134 
L 525 4134 
L 525 4666 
z
" transform="scale(0.015625)"/>
      </defs>
      <use xlink:href="#DejaVuSans-31"/>
      <use xlink:href="#DejaVuSans-65" x="63.623047"/>
      <use xlink:href="#DejaVuSans-37" x="125.146484"/>
     </g>
    </g>
   </g>
   <g id="line2d_44">
    <path d="M 333.135178 503.874783 
L 349.094818 503.683841 
L 353.528051 503.472536 
L 356.187991 503.12005 
L 357.074638 502.916287 
L 357.961285 502.54673 
L 358.847931 502.006785 
L 359.734578 500.374589 
L 360.621225 498.179091 
L 361.507871 492.559791 
L 362.394518 483.673349 
L 363.281165 471.102509 
L 367.714398 399.019313 
L 369.487691 376.38531 
L 370.374338 366.773545 
L 371.260985 358.468947 
L 372.147631 351.760455 
L 373.920925 340.723168 
L 374.807571 336.891953 
L 375.694218 333.680452 
L 376.580865 331.434982 
L 377.467511 329.915311 
L 378.354158 328.950762 
L 379.240805 328.570435 
L 380.127451 328.745801 
L 381.014098 329.346002 
L 381.900745 330.352795 
L 382.787392 331.657264 
L 384.560685 335.42473 
L 385.447332 337.55951 
L 387.220625 342.54078 
L 390.767212 354.329855 
L 392.540505 360.298655 
L 396.087092 373.238269 
L 396.973738 375.774126 
L 399.633678 385.517005 
L 402.293618 394.58057 
L 403.180265 397.214815 
L 404.066912 400.231913 
L 404.953558 402.801933 
L 405.840205 405.789053 
L 406.726852 408.173827 
L 408.500145 413.877464 
L 409.386792 416.03942 
L 410.273438 418.834616 
L 412.046732 423.163784 
L 414.706672 430.274142 
L 416.479965 434.158842 
L 419.139905 440.233035 
L 420.026552 441.781249 
L 420.913198 444.030274 
L 424.459785 450.81366 
L 425.346432 452.194372 
L 427.119725 455.371413 
L 428.006372 456.505157 
L 428.893018 458.447168 
L 430.666312 461.064146 
L 431.552958 462.123648 
L 433.326252 464.617899 
L 438.646132 471.298935 
L 441.306072 473.702238 
L 442.192719 475.045739 
L 443.079365 475.600373 
L 444.852659 477.437178 
L 447.512599 479.611876 
L 448.399245 480.527598 
L 449.285892 481.085836 
L 450.172539 481.903432 
L 451.059185 482.450222 
L 452.832479 484.087803 
L 453.719125 484.315386 
L 454.605772 485.163301 
L 455.492419 485.422496 
L 456.379065 485.958578 
L 457.265712 486.899081 
L 458.152359 487.064336 
L 459.039005 487.841587 
L 460.812299 488.623609 
L 461.698945 489.212988 
L 467.018825 491.504358 
L 467.905472 491.690636 
L 470.565412 492.997207 
L 471.452059 493.428706 
L 472.338705 493.570389 
L 474.111999 494.359458 
L 474.998645 494.552007 
L 475.885292 495.007491 
L 476.771939 495.109518 
L 478.545232 495.674072 
L 479.431879 495.745605 
L 480.318525 496.210983 
L 481.205172 496.209798 
L 482.091819 496.565252 
L 482.978465 496.74554 
L 483.865112 497.149485 
L 484.751759 497.312764 
L 485.638405 497.298565 
L 490.071639 498.365521 
L 490.958285 498.534077 
L 491.844932 498.529407 
L 493.618226 499.035398 
L 498.938106 499.714911 
L 500.711399 500.120212 
L 501.598046 500.150601 
L 502.484692 500.396319 
L 503.371339 500.287444 
L 505.144632 500.600062 
L 506.031279 500.657286 
L 506.917926 500.84574 
L 508.691219 500.905425 
L 509.577866 501.126987 
L 509.577866 501.126987 
" clip-path="url(#p6f7b3ae52b)" style="fill: none; stroke: #1f77b4; stroke-width: 1.5; stroke-linecap: square"/>
   </g>
   <g id="patch_18">
    <path d="M 324.313043 512.64 
L 324.313043 319.805217 
" style="fill: none; stroke: #000000; stroke-width: 0.8; stroke-linejoin: miter; stroke-linecap: square"/>
   </g>
   <g id="patch_19">
    <path d="M 518.4 512.64 
L 518.4 319.805217 
" style="fill: none; stroke: #000000; stroke-width: 0.8; stroke-linejoin: miter; stroke-linecap: square"/>
   </g>
   <g id="patch_20">
    <path d="M 324.313043 512.64 
L 518.4 512.64 
" style="fill: none; stroke: #000000; stroke-width: 0.8; stroke-linejoin: miter; stroke-linecap: square"/>
   </g>
   <g id="patch_21">
    <path d="M 324.313043 319.805217 
L 518.4 319.805217 
" style="fill: none; stroke: #000000; stroke-width: 0.8; stroke-linejoin: miter; stroke-linecap: square"/>
   </g>
  </g>
 </g>
 <defs>
  <clipPath id="p26bfb0e1d0">
   <rect x="72" y="69.12" width="194.086957" height="192.834783"/>
  </clipPath>
  <clipPath id="pb49d0d5f1e">
   <rect x="324.313043" y="69.12" width="194.086957" height="192.834783"/>
  </clipPath>
  <clipPath id="pead8857dac">
   <rect x="72" y="319.805217" width="194.086957" height="192.834783"/>
  </clipPath>
  <clipPath id="p6f7b3ae52b">
   <rect x="324.313043" y="319.805217" width="194.086957" height="192.834783"/>
  </clipPath>
 </defs>
</svg>
